<?xml version="1.0" encoding="UTF-8"?>
<!DOCTYPE svg PUBLIC "-//W3C//DTD SVG 1.1//EN" "http://www.w3.org/Graphics/SVG/1.1/DTD/svg11.dtd">
<svg xmlns="http://www.w3.org/2000/svg" version="1.1" width="60px" height="60px" style="shape-rendering:geometricPrecision; text-rendering:geometricPrecision; image-rendering:optimizeQuality; fill-rule:evenodd; clip-rule:evenodd" xmlns:xlink="http://www.w3.org/1999/xlink">
<g><path style="opacity:1" fill="#fafafa" d="M -0.5,-0.5 C 2.16667,-0.5 4.83333,-0.5 7.5,-0.5C 7.5,-0.166667 7.5,0.166667 7.5,0.5C 6.06975,2.45474 6.40309,4.12141 8.5,5.5C 8.5,5.83333 8.5,6.16667 8.5,6.5C 7.88263,8.32076 7.71596,10.3208 8,12.5C 1.95625,16.513 2.12292,20.1797 8.5,23.5C 9.40397,24.209 9.73731,25.209 9.5,26.5C 9.17876,28.0481 8.17876,28.7148 6.5,28.5C 6.35369,30.9424 7.18703,31.6091 9,30.5C 9.49351,32.1341 9.66018,33.8008 9.5,35.5C 4.27195,36.6228 2.77195,39.6228 5,44.5C 9.04445,47.1048 9.54445,50.4382 6.5,54.5C 6.54272,55.4164 6.87605,56.0831 7.5,56.5C 8.25057,57.5735 9.25057,57.7401 10.5,57C 11.7911,55.7083 11.7911,54.5417 10.5,53.5C 8.62276,49.2965 9.78943,46.2965 14,44.5C 16.7542,46.1274 19.5875,47.6274 22.5,49C 23.687,52.2616 25.3536,55.2616 27.5,58C 28.7932,58.49 30.1266,58.6567 31.5,58.5C 31.5,58.8333 31.5,59.1667 31.5,59.5C 20.8333,59.5 10.1667,59.5 -0.5,59.5C -0.5,39.5 -0.5,19.5 -0.5,-0.5 Z"/></g>
<g><path style="opacity:1" fill="#f8f9f9" d="M 7.5,0.5 C 7.5,0.166667 7.5,-0.166667 7.5,-0.5C 24.8333,-0.5 42.1667,-0.5 59.5,-0.5C 59.5,19.5 59.5,39.5 59.5,59.5C 50.1667,59.5 40.8333,59.5 31.5,59.5C 31.5,59.1667 31.5,58.8333 31.5,58.5C 34.8931,56.927 36.2264,54.2604 35.5,50.5C 38.8056,48.5113 42.1389,46.5113 45.5,44.5C 50.89,46.4794 51.89,49.8128 48.5,54.5C 48.5427,55.4164 48.8761,56.0831 49.5,56.5C 50.2506,57.5735 51.2506,57.7401 52.5,57C 53.7911,55.7083 53.7911,54.5417 52.5,53.5C 50.7111,49.8818 51.3778,46.8818 54.5,44.5C 56.543,40.3253 55.543,37.3253 51.5,35.5C 50.3691,33.9255 50.2025,32.2588 51,30.5C 52.1313,31.6039 52.9646,31.2705 53.5,29.5C 52.675,28.6143 51.675,28.281 50.5,28.5C 50.0439,24.8814 51.5439,22.5481 55,21.5C 55.6667,19.1667 55.6667,16.8333 55,14.5C 51.7124,13.4637 50.8791,11.4637 52.5,8.5C 51.5,7.16667 50.5,7.16667 49.5,8.5C 49.9312,9.29349 50.2645,10.1268 50.5,11C 48.7904,12.6111 46.9571,14.1111 45,15.5C 42,13.5 39,11.5 36,9.5C 35.8091,7.29221 35.3091,5.29221 34.5,3.5C 34.5858,2.5041 34.2524,1.67076 33.5,1C 26.4391,-0.785784 23.2724,2.04755 24,9.5C 20.9177,11.625 17.7511,13.625 14.5,15.5C 13.8933,15.3764 13.56,15.0431 13.5,14.5C 12.019,13.5788 10.6856,12.4121 9.5,11C 11.0759,9.00497 10.7425,7.50497 8.5,6.5C 8.5,6.16667 8.5,5.83333 8.5,5.5C 12.7538,2.99752 12.4205,1.33085 7.5,0.5 Z"/></g>
<g><path style="opacity:1" fill="#5f7675" d="M 7.5,0.5 C 12.4205,1.33085 12.7538,2.99752 8.5,5.5C 6.40309,4.12141 6.06975,2.45474 7.5,0.5 Z"/></g>
<g><path style="opacity:1" fill="#d0d8d9" d="M 7.5,1.5 C 9.33702,1.63945 9.67036,2.30612 8.5,3.5C 7.70245,3.04311 7.36912,2.37644 7.5,1.5 Z"/></g>
<g><path style="opacity:1" fill="#5c7572" d="M 49.5,0.5 C 54.3396,1.18849 54.6729,2.85515 50.5,5.5C 48.2957,4.21802 47.9624,2.55136 49.5,0.5 Z"/></g>
<g><path style="opacity:1" fill="#607b79" d="M 17.5,6.5 C 18.5,6.5 19.5,6.5 20.5,6.5C 20.5,7.83333 20.5,9.16667 20.5,10.5C 19.5,10.5 18.5,10.5 17.5,10.5C 17.5,9.16667 17.5,7.83333 17.5,6.5 Z"/></g>
<g><path style="opacity:1" fill="#5d7573" d="M 39.5,6.5 C 40.5,6.5 41.5,6.5 42.5,6.5C 42.7778,8.34642 42.1112,9.67975 40.5,10.5C 39.5713,9.31116 39.238,7.97782 39.5,6.5 Z"/></g>
<g><path style="opacity:1" fill="#cfddd4" d="M 32.5,10.5 C 36.6305,11.8162 40.4639,13.8162 44,16.5C 44.7975,18.2588 44.6309,19.9255 43.5,21.5C 42.2613,21.9424 41.2613,22.6091 40.5,23.5C 37.2771,21.6358 34.1104,19.6358 31,17.5C 30.8333,16.3333 30.6667,15.1667 30.5,14C 30.6083,12.3189 31.2749,11.1522 32.5,10.5 Z"/></g>
<g><path style="opacity:1" fill="#c4d3cc" d="M 12.5,15.5 C 12.5,15.8333 12.5,16.1667 12.5,16.5C 11.8716,19.9549 9.87163,21.1215 6.5,20C 5.10516,14.6515 7.10516,13.1515 12.5,15.5 Z"/></g>
<g><path style="opacity:1" fill="#4e6864" d="M 8.5,6.5 C 10.7425,7.50497 11.0759,9.00497 9.5,11C 10.6856,12.4121 12.019,13.5788 13.5,14.5C 12.8333,14.5 12.5,14.8333 12.5,15.5C 7.10516,13.1515 5.10516,14.6515 6.5,20C 9.87163,21.1215 11.8716,19.9549 12.5,16.5C 13.5735,17.2506 13.7401,18.2506 13,19.5C 11.6032,21.0703 10.1032,22.4036 8.5,23.5C 2.12292,20.1797 1.95625,16.513 8,12.5C 7.71596,10.3208 7.88263,8.32076 8.5,6.5 Z"/></g>
<g><path style="opacity:1" fill="#425e5a" d="M 34.5,3.5 C 35.3091,5.29221 35.8091,7.29221 36,9.5C 39,11.5 42,13.5 45,15.5C 46.9571,14.1111 48.7904,12.6111 50.5,11C 50.2645,10.1268 49.9312,9.29349 49.5,8.5C 50.5,7.16667 51.5,7.16667 52.5,8.5C 50.8791,11.4637 51.7124,13.4637 55,14.5C 55.6667,16.8333 55.6667,19.1667 55,21.5C 51.5439,22.5481 50.0439,24.8814 50.5,28.5C 51.675,28.281 52.675,28.6143 53.5,29.5C 52.9646,31.2705 52.1313,31.6039 51,30.5C 50.2025,32.2588 50.3691,33.9255 51.5,35.5C 55.543,37.3253 56.543,40.3253 54.5,44.5C 51.3778,46.8818 50.7111,49.8818 52.5,53.5C 51.325,53.281 50.325,53.6143 49.5,54.5C 50.5498,55.4288 50.5498,56.0954 49.5,56.5C 48.8761,56.0831 48.5427,55.4164 48.5,54.5C 51.89,49.8128 50.89,46.4794 45.5,44.5C 42.1389,46.5113 38.8056,48.5113 35.5,50.5C 34.8333,49.8333 34.1667,49.1667 33.5,48.5C 37.3006,47.5497 40.8006,45.883 44,43.5C 44.1667,42.6667 44.3333,41.8333 44.5,41C 43.9923,39.1074 42.9923,37.6074 41.5,36.5C 41.5,36.1667 41.5,35.8333 41.5,35.5C 41.8333,35.5 42.1667,35.5 42.5,35.5C 44.1978,38.1239 46.0312,38.1239 48,35.5C 48.6667,31.5 48.6667,27.5 48,23.5C 46.5302,21.1231 45.0302,21.1231 43.5,23.5C 42.391,23.5569 41.391,23.8902 40.5,24.5C 40.5,24.1667 40.5,23.8333 40.5,23.5C 41.2613,22.6091 42.2613,21.9424 43.5,21.5C 44.6309,19.9255 44.7975,18.2588 44,16.5C 40.4639,13.8162 36.6305,11.8162 32.5,10.5C 34.1484,8.54409 34.8151,6.21076 34.5,3.5 Z"/></g>
<g><path style="opacity:1" fill="#c9d7d1" d="M 48.5,14.5 C 53.5867,14.2845 54.5867,16.1178 51.5,20C 46.2894,20.5464 45.2894,18.713 48.5,14.5 Z"/></g>
<g><path style="opacity:1" fill="#c5d5ca" d="M 42.5,35.5 C 42.307,31.4338 42.6403,27.4338 43.5,23.5C 45.0302,21.1231 46.5302,21.1231 48,23.5C 48.6667,27.5 48.6667,31.5 48,35.5C 46.0312,38.1239 44.1978,38.1239 42.5,35.5 Z"/></g>
<g><path style="opacity:1" fill="#c7d7cc" d="M 18.5,23.5 C 18.6655,27.5138 18.4988,31.5138 18,35.5C 15.7442,38.0711 13.5775,38.0711 11.5,35.5C 11.5,31.5 11.5,27.5 11.5,23.5C 12.172,22.7326 13.0053,22.0659 14,21.5C 15.3297,22.5822 16.8297,23.2488 18.5,23.5 Z"/></g>
<g><path style="opacity:1" fill="#9db2a8" d="M 43.5,23.5 C 42.6403,27.4338 42.307,31.4338 42.5,35.5C 42.1667,35.5 41.8333,35.5 41.5,35.5C 40.5184,32.0381 40.185,28.3714 40.5,24.5C 41.391,23.8902 42.391,23.5569 43.5,23.5 Z"/></g>
<g><path style="opacity:1" fill="#324f4b" d="M 34.5,3.5 C 34.8151,6.21076 34.1484,8.54409 32.5,10.5C 31.2749,11.1522 30.6083,12.3189 30.5,14C 30.6667,15.1667 30.8333,16.3333 31,17.5C 34.1104,19.6358 37.2771,21.6358 40.5,23.5C 40.5,23.8333 40.5,24.1667 40.5,24.5C 40.185,28.3714 40.5184,32.0381 41.5,35.5C 41.5,35.8333 41.5,36.1667 41.5,36.5C 36.6298,37.729 32.9631,40.3957 30.5,44.5C 30.6198,46.5885 31.6198,47.9218 33.5,48.5C 34.1667,49.1667 34.8333,49.8333 35.5,50.5C 36.2264,54.2604 34.8931,56.927 31.5,58.5C 30.1266,58.6567 28.7932,58.49 27.5,58C 25.3536,55.2616 23.687,52.2616 22.5,49C 19.5875,47.6274 16.7542,46.1274 14,44.5C 9.78943,46.2965 8.62276,49.2965 10.5,53.5C 9.32496,53.281 8.32496,53.6143 7.5,54.5C 8.54982,55.4288 8.54982,56.0954 7.5,56.5C 6.87605,56.0831 6.54272,55.4164 6.5,54.5C 9.54445,50.4382 9.04445,47.1048 5,44.5C 2.77195,39.6228 4.27195,36.6228 9.5,35.5C 10.1667,35.5 10.8333,35.5 11.5,35.5C 13.5775,38.0711 15.7442,38.0711 18,35.5C 18.4988,31.5138 18.6655,27.5138 18.5,23.5C 16.8297,23.2488 15.3297,22.5822 14,21.5C 13.0053,22.0659 12.172,22.7326 11.5,23.5C 10.8333,24.5 10.1667,25.5 9.5,26.5C 9.73731,25.209 9.40397,24.209 8.5,23.5C 10.1032,22.4036 11.6032,21.0703 13,19.5C 13.7401,18.2506 13.5735,17.2506 12.5,16.5C 12.5,16.1667 12.5,15.8333 12.5,15.5C 12.5,14.8333 12.8333,14.5 13.5,14.5C 13.56,15.0431 13.8933,15.3764 14.5,15.5C 17.7511,13.625 20.9177,11.625 24,9.5C 23.2724,2.04755 26.4391,-0.785784 33.5,1C 34.2524,1.67076 34.5858,2.5041 34.5,3.5 Z"/></g>
<g><path style="opacity:1" fill="#d9e2e0" d="M 29.5,19.5 C 29.5,22.5 29.5,25.5 29.5,28.5C 27.3747,30.3367 24.7081,32.3367 21.5,34.5C 18.5686,26.7009 21.2353,21.7009 29.5,19.5 Z"/></g>
<g><path style="opacity:1" fill="#b7cac1" d="M 29.5,19.5 C 32.395,20.3994 35.0616,21.7328 37.5,23.5C 37.2294,25.4305 36.2294,26.7638 34.5,27.5C 32.8828,28.038 31.2161,28.3713 29.5,28.5C 29.5,25.5 29.5,22.5 29.5,19.5 Z"/></g>
<g><path style="opacity:1" fill="#c8d7ce" d="M 18.5,23.5 C 17.6851,22.1634 16.5185,21.1634 15,20.5C 14.2195,19.0563 14.3861,17.723 15.5,16.5C 18.5,14.6667 21.5,12.8333 24.5,11C 25.8333,10.3333 27.1667,10.3333 28.5,11C 29.5914,13.0639 29.7581,15.2305 29,17.5C 25.6894,19.9031 22.1894,21.9031 18.5,23.5 Z"/></g>
<g><path style="opacity:1" fill="#87a59c" d="M 32.5,3.5 C 33.8866,5.4888 33.5532,7.32213 31.5,9C 29.4652,9.59863 27.7985,9.09863 26.5,7.5C 30.2407,8.40147 32.2407,7.06814 32.5,3.5 Z"/></g>
<g><path style="opacity:1" fill="#cfded7" d="M 32.5,3.5 C 32.2407,7.06814 30.2407,8.40147 26.5,7.5C 25.4082,2.87749 27.0748,1.04416 31.5,2C 32.056,2.38258 32.3893,2.88258 32.5,3.5 Z"/></g>
<g><path style="opacity:1" fill="#96b1aa" d="M 34.5,27.5 C 35.5,27.5 36.5,27.5 37.5,27.5C 37.5,29.1667 37.5,30.8333 37.5,32.5C 34.7354,32.2024 32.2354,31.2024 30,29.5C 29.8213,33.0252 29.3213,36.3586 28.5,39.5C 25.8646,38.1891 23.5313,36.5224 21.5,34.5C 24.7081,32.3367 27.3747,30.3367 29.5,28.5C 31.2161,28.3713 32.8828,28.038 34.5,27.5 Z"/></g>
<g><path style="opacity:1" fill="#566d6c" d="M 11.5,23.5 C 11.5,27.5 11.5,31.5 11.5,35.5C 10.8333,35.5 10.1667,35.5 9.5,35.5C 9.66018,33.8008 9.49351,32.1341 9,30.5C 7.18703,31.6091 6.35369,30.9424 6.5,28.5C 8.17876,28.7148 9.17876,28.0481 9.5,26.5C 10.1667,25.5 10.8333,24.5 11.5,23.5 Z"/></g>
<g><path style="opacity:1" fill="#6d9089" d="M 37.5,23.5 C 38.2216,23.9175 38.7216,24.5842 39,25.5C 39.6667,28.5 39.6667,31.5 39,34.5C 35.9177,36.625 32.7511,38.625 29.5,40.5C 28.8933,40.3764 28.56,40.0431 28.5,39.5C 29.3213,36.3586 29.8213,33.0252 30,29.5C 32.2354,31.2024 34.7354,32.2024 37.5,32.5C 37.5,30.8333 37.5,29.1667 37.5,27.5C 36.5,27.5 35.5,27.5 34.5,27.5C 36.2294,26.7638 37.2294,25.4305 37.5,23.5 Z"/></g>
<g><path style="opacity:1" fill="#b0c6bb" d="M 12.5,38.5 C 12.3257,41.763 10.659,43.4296 7.5,43.5C 5.62313,42.3409 5.12313,40.6742 6,38.5C 8.27352,37.1888 10.4402,37.1888 12.5,38.5 Z"/></g>
<g><path style="opacity:1" fill="#bbcdc7" d="M 47.5,37.5 C 49.5,37.5 51.5,37.5 53.5,37.5C 53.6951,42.4857 51.5284,44.1524 47,42.5C 46.3603,40.735 46.5269,39.0683 47.5,37.5 Z"/></g>
<g><path style="opacity:1" fill="#adc2b6" d="M 41.5,36.5 C 42.9923,37.6074 43.9923,39.1074 44.5,41C 44.3333,41.8333 44.1667,42.6667 44,43.5C 40.8006,45.883 37.3006,47.5497 33.5,48.5C 31.6198,47.9218 30.6198,46.5885 30.5,44.5C 32.9631,40.3957 36.6298,37.729 41.5,36.5 Z"/></g>
<g><path style="opacity:1" fill="#63897f" d="M 12.5,38.5 C 14.1943,41.639 13.1943,43.639 9.5,44.5C 8.58362,44.4573 7.91695,44.1239 7.5,43.5C 10.659,43.4296 12.3257,41.763 12.5,38.5 Z"/></g>
<g><path style="opacity:1" fill="#b1c5bb" d="M 18.5,36.5 C 22.0901,37.6284 25.4234,39.295 28.5,41.5C 30.4294,46.6043 28.7627,48.771 23.5,48C 20.7053,46.7003 18.0387,45.2003 15.5,43.5C 14.1667,41.8333 14.1667,40.1667 15.5,38.5C 16.7387,38.0576 17.7387,37.3909 18.5,36.5 Z"/></g>
<g><path style="opacity:1" fill="#b5cac1" d="M 32.5,50.5 C 32.5,53.8333 30.8333,55.5 27.5,55.5C 25.5,50.1667 27.1667,48.5 32.5,50.5 Z"/></g>
<g><path style="opacity:1" fill="#587574" d="M 17.5,50.5 C 18.5,50.5 19.5,50.5 20.5,50.5C 19.5,55.8333 18.5,55.8333 17.5,50.5 Z"/></g>
<g><path style="opacity:1" fill="#4d6965" d="M 39.5,50.5 C 42.8606,51.2032 43.1939,52.5365 40.5,54.5C 39.5713,53.3112 39.238,51.9778 39.5,50.5 Z"/></g>
<g><path style="opacity:1" fill="#5e877e" d="M 32.5,50.5 C 34.5,55.8333 32.8333,57.5 27.5,55.5C 30.8333,55.5 32.5,53.8333 32.5,50.5 Z"/></g>
<g><path style="opacity:1" fill="#6a8380" d="M 10.5,53.5 C 11.7911,54.5417 11.7911,55.7083 10.5,57C 9.25057,57.7401 8.25057,57.5735 7.5,56.5C 8.54982,56.0954 8.54982,55.4288 7.5,54.5C 8.32496,53.6143 9.32496,53.281 10.5,53.5 Z"/></g>
<g><path style="opacity:1" fill="#6d8882" d="M 52.5,53.5 C 53.7911,54.5417 53.7911,55.7083 52.5,57C 51.2506,57.7401 50.2506,57.5735 49.5,56.5C 50.5498,56.0954 50.5498,55.4288 49.5,54.5C 50.325,53.6143 51.325,53.281 52.5,53.5 Z"/></g>
</svg>
