<?xml version="1.0" encoding="UTF-8"?>
<!DOCTYPE svg PUBLIC "-//W3C//DTD SVG 1.1//EN" "http://www.w3.org/Graphics/SVG/1.1/DTD/svg11.dtd">
<svg xmlns="http://www.w3.org/2000/svg" version="1.1" width="60px" height="60px" style="shape-rendering:geometricPrecision; text-rendering:geometricPrecision; image-rendering:optimizeQuality; fill-rule:evenodd; clip-rule:evenodd" xmlns:xlink="http://www.w3.org/1999/xlink">
<g><path style="opacity:0.988" fill="#1e3a38" d="M 7.5,-0.5 C 8.5,-0.5 9.5,-0.5 10.5,-0.5C 12.2024,5.63521 10.5357,6.80188 5.5,3C 6.30501,1.88732 6.97168,0.72065 7.5,-0.5 Z"/></g>
<g><path style="opacity:1" fill="#e8edef" d="M 7.5,1.5 C 9.33702,1.63945 9.67036,2.30612 8.5,3.5C 7.70245,3.04311 7.36912,2.37644 7.5,1.5 Z"/></g>
<g><path style="opacity:0.09" fill="#203f3a" d="M 49.5,-0.5 C 50.5,-0.5 51.5,-0.5 52.5,-0.5C 54.5336,3.90813 53.3669,5.5748 49,4.5C 48.3603,2.73498 48.5269,1.06831 49.5,-0.5 Z"/></g>
<g><path style="opacity:1" fill="#e0edeb" d="M 49.5,1.5 C 51.337,1.63945 51.6704,2.30612 50.5,3.5C 49.7025,3.04311 49.3691,2.37644 49.5,1.5 Z"/></g>
<g><path style="opacity:1" fill="#1f3838" d="M 20.5,10.5 C 17.8338,10.9342 16.6671,9.93423 17,7.5C 20.5966,5.93388 21.7632,6.93388 20.5,10.5 Z"/></g>
<g><path style="opacity:0.976" fill="#193632" d="M 27.5,-0.5 C 29.1667,-0.5 30.8333,-0.5 32.5,-0.5C 34.8315,2.32699 36.1648,5.66033 36.5,9.5C 37.4168,10.1272 38.4168,10.4606 39.5,10.5C 45.3617,16.3927 49.0284,15.0594 50.5,6.5C 52.7644,7.53815 53.0978,9.03815 51.5,11C 54.1504,12.8219 55.8171,15.3219 56.5,18.5C 55.9649,20.261 54.9649,21.5943 53.5,22.5C 51.901,22.7678 50.5676,22.4345 49.5,21.5C 53.5749,21.624 54.9083,19.9573 53.5,16.5C 51.9894,14.5589 49.9894,14.0589 47.5,15C 46.2475,16.8278 46.2475,18.6612 47.5,20.5C 47.5,21.1667 47.8333,21.5 48.5,21.5C 48.5,22.1667 48.5,22.8333 48.5,23.5C 46.0612,21.5359 43.5612,21.8692 41,24.5C 40.5017,27.8168 40.335,31.1501 40.5,34.5C 40.1667,34.5 39.8333,34.5 39.5,34.5C 39.7471,31.0613 39.4137,27.728 38.5,24.5C 38.5,23.8333 38.1667,23.5 37.5,23.5C 37.5,22.8333 37.8333,22.5 38.5,22.5C 45.3069,22.8656 46.6403,20.3656 42.5,15C 39.6882,13.6723 37.0216,12.1723 34.5,10.5C 33.8333,9.83333 33.1667,9.16667 32.5,8.5C 34.4051,3.57256 32.7384,1.40589 27.5,2C 26.7476,2.67076 26.4142,3.5041 26.5,4.5C 25.5386,6.26465 25.2053,8.26465 25.5,10.5C 23.1667,11.8333 20.8333,13.1667 18.5,14.5C 17.8333,14.5 17.1667,14.5 16.5,14.5C 18.1392,13.5275 19.4726,12.1942 20.5,10.5C 21.5832,10.4606 22.5832,10.1272 23.5,9.5C 23.8352,5.66033 25.1685,2.32699 27.5,-0.5 Z"/></g>
<g><path style="opacity:1" fill="#c4d8d0" d="M 32.5,8.5 C 28.7196,10.0718 26.7196,8.73847 26.5,4.5C 26.4142,3.5041 26.7476,2.67076 27.5,2C 32.7384,1.40589 34.4051,3.57256 32.5,8.5 Z"/></g>
<g><path style="opacity:0.624" fill="#264140" d="M 39.5,10.5 C 38.0464,7.60014 39.0464,6.26681 42.5,6.5C 42.5,7.83333 42.5,9.16667 42.5,10.5C 41.5,10.5 40.5,10.5 39.5,10.5 Z"/></g>
<g><path style="opacity:1" fill="#d3e1d8" d="M 34.5,10.5 C 37.0216,12.1723 39.6882,13.6723 42.5,15C 46.6403,20.3656 45.3069,22.8656 38.5,22.5C 35.9795,20.9808 33.4795,19.3141 31,17.5C 30.3333,15.5 30.3333,13.5 31,11.5C 32.0113,10.6634 33.1779,10.33 34.5,10.5 Z"/></g>
<g><path style="opacity:1" fill="#cedcd3" d="M 25.5,10.5 C 26.8221,10.33 27.9887,10.6634 29,11.5C 29.6667,13.5 29.6667,15.5 29,17.5C 25.6894,19.9031 22.1894,21.9031 18.5,23.5C 16.6561,22.244 15.3228,20.5773 14.5,18.5C 15.437,16.712 16.7703,15.3786 18.5,14.5C 20.8333,13.1667 23.1667,11.8333 25.5,10.5 Z"/></g>
<g><path style="opacity:1" fill="#183532" d="M 16.5,14.5 C 17.1667,14.5 17.8333,14.5 18.5,14.5C 16.7703,15.3786 15.437,16.712 14.5,18.5C 15.3228,20.5773 16.6561,22.244 18.5,23.5C 16.8297,23.2488 15.3297,22.5822 14,21.5C 13.0053,22.0659 12.172,22.7326 11.5,23.5C 11.1307,27.7675 10.1307,31.7675 8.5,35.5C 9.23411,34.2921 9.56745,32.9587 9.5,31.5C 8.16667,31.5 6.83333,31.5 5.5,31.5C 5.17556,28.306 6.34223,27.306 9,28.5C 9.16667,27.8333 9.33333,27.1667 9.5,26.5C 6.80486,24.2716 4.80486,21.4383 3.5,18C 4.22639,15.1073 5.89306,12.9406 8.5,11.5C 5.36983,8.29906 6.0365,6.63239 10.5,6.5C 10.1667,8.5 9.83333,10.5 9.5,12.5C 11.8333,13.1667 14.1667,13.8333 16.5,14.5 Z"/></g>
<g><path style="opacity:1" fill="#b2c5bc" d="M 6.5,14.5 C 11.7087,13.7052 13.7087,15.7052 12.5,20.5C 6.47697,22.4402 4.47697,20.4402 6.5,14.5 Z"/></g>
<g><path style="opacity:1" fill="#c7d6cf" d="M 53.5,16.5 C 52.9114,19.7337 50.9114,21.067 47.5,20.5C 46.2475,18.6612 46.2475,16.8278 47.5,15C 49.9894,14.0589 51.9894,14.5589 53.5,16.5 Z"/></g>
<g><path style="opacity:1" fill="#688b81" d="M 53.5,16.5 C 54.9083,19.9573 53.5749,21.624 49.5,21.5C 49.1667,21.5 48.8333,21.5 48.5,21.5C 47.8333,21.5 47.5,21.1667 47.5,20.5C 50.9114,21.067 52.9114,19.7337 53.5,16.5 Z"/></g>
<g><path style="opacity:1" fill="#24403d" d="M 26.5,4.5 C 26.7196,8.73847 28.7196,10.0718 32.5,8.5C 33.1667,9.16667 33.8333,9.83333 34.5,10.5C 33.1779,10.33 32.0113,10.6634 31,11.5C 30.3333,13.5 30.3333,15.5 31,17.5C 33.4795,19.3141 35.9795,20.9808 38.5,22.5C 37.8333,22.5 37.5,22.8333 37.5,23.5C 35.0616,21.7328 32.395,20.3994 29.5,19.5C 25.2552,21.1636 22.2552,23.4969 20.5,26.5C 19.8333,29.5 19.1667,32.5 18.5,35.5C 18.5,31.5 18.5,27.5 18.5,23.5C 22.1894,21.9031 25.6894,19.9031 29,17.5C 29.6667,15.5 29.6667,13.5 29,11.5C 27.9887,10.6634 26.8221,10.33 25.5,10.5C 25.2053,8.26465 25.5386,6.26465 26.5,4.5 Z"/></g>
<g><path style="opacity:1" fill="#cad9cf" d="M 18.5,23.5 C 18.5,27.5 18.5,31.5 18.5,35.5C 16.2045,37.7734 14.0379,37.7734 12,35.5C 11.5012,31.5138 11.3345,27.5138 11.5,23.5C 12.172,22.7326 13.0053,22.0659 14,21.5C 15.3297,22.5822 16.8297,23.2488 18.5,23.5 Z"/></g>
<g><path style="opacity:1" fill="#d8e1df" d="M 29.5,19.5 C 30.0111,23.0297 29.3444,26.1963 27.5,29C 27.8333,29.3333 28.1667,29.6667 28.5,30C 26.1019,31.5242 23.7686,33.0242 21.5,34.5C 20.5269,32.0521 20.1936,29.3854 20.5,26.5C 22.2552,23.4969 25.2552,21.1636 29.5,19.5 Z"/></g>
<g><path style="opacity:1" fill="#bfd1c6" d="M 48.5,23.5 C 48.6655,27.5138 48.4988,31.5138 48,35.5C 45.1784,38.0673 42.6784,37.734 40.5,34.5C 40.335,31.1501 40.5017,27.8168 41,24.5C 43.5612,21.8692 46.0612,21.5359 48.5,23.5 Z"/></g>
<g><path style="opacity:1" fill="#a9c0b7" d="M 29.5,19.5 C 32.395,20.3994 35.0616,21.7328 37.5,23.5C 38.1667,23.5 38.5,23.8333 38.5,24.5C 35.7972,26.1807 33.1305,27.8474 30.5,29.5C 29.8339,32.6893 29.1672,36.0227 28.5,39.5C 25.8463,38.164 23.513,36.4974 21.5,34.5C 23.7686,33.0242 26.1019,31.5242 28.5,30C 28.1667,29.6667 27.8333,29.3333 27.5,29C 29.3444,26.1963 30.0111,23.0297 29.5,19.5 Z"/></g>
<g><path style="opacity:1" fill="#22423e" d="M 11.5,23.5 C 11.3345,27.5138 11.5012,31.5138 12,35.5C 14.0379,37.7734 16.2045,37.7734 18.5,35.5C 19.1667,32.5 19.8333,29.5 20.5,26.5C 20.1936,29.3854 20.5269,32.0521 21.5,34.5C 23.513,36.4974 25.8463,38.164 28.5,39.5C 29.1672,36.0227 29.8339,32.6893 30.5,29.5C 30.1796,32.8984 30.513,36.2317 31.5,39.5C 34.1947,37.8224 36.8614,36.1558 39.5,34.5C 39.8333,34.5 40.1667,34.5 40.5,34.5C 42.6784,37.734 45.1784,38.0673 48,35.5C 48.4988,31.5138 48.6655,27.5138 48.5,23.5C 48.9535,28.279 49.9535,32.9457 51.5,37.5C 49.7085,37.366 48.0418,37.6993 46.5,38.5C 45.596,39.209 45.2627,40.209 45.5,41.5C 44.5345,39.2441 42.8678,37.5774 40.5,36.5C 37.3116,37.9252 34.3116,39.5919 31.5,41.5C 30.8333,40.1667 30.1667,40.1667 29.5,41.5C 26.2003,39.8921 22.8669,38.2255 19.5,36.5C 17.6036,37.2745 15.937,38.2745 14.5,39.5C 14.1667,39.5 13.8333,39.5 13.5,39.5C 13.5,38.8333 13.1667,38.5 12.5,38.5C 11.1037,36.6275 9.43704,36.2942 7.5,37.5C 7.5,36.8333 7.5,36.1667 7.5,35.5C 7.83333,35.5 8.16667,35.5 8.5,35.5C 10.1307,31.7675 11.1307,27.7675 11.5,23.5 Z"/></g>
<g><path style="opacity:1" fill="#789b93" d="M 38.5,24.5 C 39.4137,27.728 39.7471,31.0613 39.5,34.5C 36.8614,36.1558 34.1947,37.8224 31.5,39.5C 30.513,36.2317 30.1796,32.8984 30.5,29.5C 33.1305,27.8474 35.7972,26.1807 38.5,24.5 Z"/></g>
<g><path style="opacity:1" fill="#c1d1ca" d="M 12.5,38.5 C 11.7659,39.7079 11.4326,41.0413 11.5,42.5C 9.83333,42.5 8.16667,42.5 6.5,42.5C 5.06975,40.5453 5.40309,38.8786 7.5,37.5C 9.43704,36.2942 11.1037,36.6275 12.5,38.5 Z"/></g>
<g><path style="opacity:1" fill="#b3c8bc" d="M 45.5,41.5 C 42.412,44.9837 38.5786,47.6503 34,49.5C 30.8015,47.414 29.9681,44.7473 31.5,41.5C 34.3116,39.5919 37.3116,37.9252 40.5,36.5C 42.8678,37.5774 44.5345,39.2441 45.5,41.5 Z"/></g>
<g><path style="opacity:1" fill="#c2d3cd" d="M 51.5,37.5 C 52.8333,37.5 53.5,38.1667 53.5,39.5C 52.3202,41.913 50.3202,42.913 47.5,42.5C 46.5655,41.4324 46.2322,40.099 46.5,38.5C 48.0418,37.6993 49.7085,37.366 51.5,37.5 Z"/></g>
<g><path style="opacity:1" fill="#6d958a" d="M 12.5,38.5 C 13.1667,38.5 13.5,38.8333 13.5,39.5C 13.3482,43.4866 11.3482,44.9866 7.5,44C 6.94404,43.6174 6.61071,43.1174 6.5,42.5C 8.16667,42.5 9.83333,42.5 11.5,42.5C 11.4326,41.0413 11.7659,39.7079 12.5,38.5 Z"/></g>
<g><path style="opacity:1" fill="#b5c8be" d="M 29.5,41.5 C 30.2012,45.7997 28.5345,48.4664 24.5,49.5C 21.7376,47.2753 18.7376,45.2753 15.5,43.5C 14.5713,42.3112 14.238,40.9778 14.5,39.5C 15.937,38.2745 17.6036,37.2745 19.5,36.5C 22.8669,38.2255 26.2003,39.8921 29.5,41.5 Z"/></g>
<g><path style="opacity:1" fill="#6d958b" d="M 53.5,39.5 C 54.4911,43.1864 52.8244,44.8531 48.5,44.5C 48.1667,43.8333 47.8333,43.1667 47.5,42.5C 50.3202,42.913 52.3202,41.913 53.5,39.5 Z"/></g>
<g><path style="opacity:1" fill="#15332e" d="M 7.5,35.5 C 7.5,36.1667 7.5,36.8333 7.5,37.5C 5.40309,38.8786 5.06975,40.5453 6.5,42.5C 6.61071,43.1174 6.94404,43.6174 7.5,44C 11.3482,44.9866 13.3482,43.4866 13.5,39.5C 13.8333,39.5 14.1667,39.5 14.5,39.5C 14.238,40.9778 14.5713,42.3112 15.5,43.5C 18.7376,45.2753 21.7376,47.2753 24.5,49.5C 24.5,49.8333 24.5,50.1667 24.5,50.5C 20.8884,48.7277 17.3884,46.7277 14,44.5C 12.8904,46.0368 11.3904,46.7035 9.5,46.5C 9.88087,49.9585 10.3809,53.2918 11,56.5C 8.45028,57.98 6.61694,57.3133 5.5,54.5C 7.16608,53.0079 8.16608,51.1745 8.5,49C 6.47006,46.6207 4.80339,43.954 3.5,41C 4,39.5 4.5,38 5,36.5C 5.67076,35.7476 6.5041,35.4142 7.5,35.5 Z"/></g>
<g><path style="opacity:0.716" fill="#14302c" d="M 48.5,21.5 C 48.8333,21.5 49.1667,21.5 49.5,21.5C 50.5676,22.4345 51.901,22.7678 53.5,22.5C 51.31,23.3745 50.31,25.0411 50.5,27.5C 51.5,27.5 52.5,27.5 53.5,27.5C 53.5,28.8333 53.5,30.1667 53.5,31.5C 52.5,31.5 51.5,31.5 50.5,31.5C 50.3505,32.552 50.5172,33.552 51,34.5C 53.6979,35.6983 55.5312,37.6983 56.5,40.5C 55.4138,43.7349 53.7471,46.5683 51.5,49C 53.0281,51.2813 53.5281,53.7813 53,56.5C 51.6667,57.8333 50.3333,57.8333 49,56.5C 48.6608,54.1656 48.8275,51.8322 49.5,49.5C 49.2295,47.3074 48.2295,45.6407 46.5,44.5C 47.1667,44.5 47.8333,44.5 48.5,44.5C 52.8244,44.8531 54.4911,43.1864 53.5,39.5C 53.5,38.1667 52.8333,37.5 51.5,37.5C 49.9535,32.9457 48.9535,28.279 48.5,23.5C 48.5,22.8333 48.5,22.1667 48.5,21.5 Z"/></g>
<g><path style="opacity:1" fill="#183834" d="M 46.5,38.5 C 46.2322,40.099 46.5655,41.4324 47.5,42.5C 47.8333,43.1667 48.1667,43.8333 48.5,44.5C 47.8333,44.5 47.1667,44.5 46.5,44.5C 42.9056,46.2445 39.4056,48.2445 36,50.5C 35.5951,58.5971 31.9284,60.5971 25,56.5C 24.5045,54.5273 24.3379,52.5273 24.5,50.5C 24.5,50.1667 24.5,49.8333 24.5,49.5C 28.5345,48.4664 30.2012,45.7997 29.5,41.5C 30.1667,40.1667 30.8333,40.1667 31.5,41.5C 29.9681,44.7473 30.8015,47.414 34,49.5C 38.5786,47.6503 42.412,44.9837 45.5,41.5C 45.2627,40.209 45.596,39.209 46.5,38.5 Z"/></g>
<g><path style="opacity:1" fill="#bacec6" d="M 33.5,51.5 C 32.1167,54.9099 29.7834,55.9099 26.5,54.5C 26.8732,48.139 29.2065,47.139 33.5,51.5 Z"/></g>
<g><path style="opacity:0.998" fill="#1b3b39" d="M 17.5,50.5 C 18.5,50.5 19.5,50.5 20.5,50.5C 20.5,51.8333 20.5,53.1667 20.5,54.5C 19.5,54.5 18.5,54.5 17.5,54.5C 17.5,53.1667 17.5,51.8333 17.5,50.5 Z"/></g>
<g><path style="opacity:1" fill="#1f403c" d="M 39.5,50.5 C 40.5,50.5 41.5,50.5 42.5,50.5C 42.5,51.8333 42.5,53.1667 42.5,54.5C 39.0464,54.7332 38.0464,53.3999 39.5,50.5 Z"/></g>
<g><path style="opacity:1" fill="#a1bab7" d="M 7.5,53.5 C 10.5476,53.494 11.0476,54.494 9,56.5C 7.96141,55.7562 7.46141,54.7562 7.5,53.5 Z"/></g>
<g><path style="opacity:1" fill="#628a81" d="M 33.5,51.5 C 33.9174,56.0685 31.9174,57.5685 27.5,56C 26.944,55.6174 26.6107,55.1174 26.5,54.5C 29.7834,55.9099 32.1167,54.9099 33.5,51.5 Z"/></g>
<g><path style="opacity:1" fill="#8fada5" d="M 49.5,53.5 C 52.5476,53.494 53.0476,54.494 51,56.5C 49.9614,55.7562 49.4614,54.7562 49.5,53.5 Z"/></g>
</svg>
